<?xml version="1.0" encoding="UTF-8"?>
<svg id="_레이어_2" data-name="레이어 2" xmlns="http://www.w3.org/2000/svg" viewBox="0 0 448.84 181.17">
  <defs>
    <style>
      .cls-1 {
        fill: #fff;
      }
    </style>
  </defs>
  <g id="_레이어_1-2" data-name="레이어 1">
    <g>
      <path class="cls-1" d="m48.25,1.54C13.92,1.54,0,1.8,0,1.8v177.72h27.67v-54.27h24.83s38.49-.36,38.49-38.49v-46.64S95.07,1.54,48.25,1.54Zm16.14,79.19c0,17.2-15.79,15.79-15.79,15.79h-20.93V28.76s5.32.26,21.02.26,15.7,15.7,15.7,15.7v36Z"/>
      <path class="cls-1" d="m179.59,1.54h-42.3l-31.22,177.98h29.8l5.67-31.57h33.79l5.67,31.57h29.8L179.59,1.54Zm-35.21,119.81l14.06-83.04,14.06,83.04h-28.11Z"/>
      <path class="cls-1" d="m297.54,54.65h29.18c-1.63-11.78,8.29-50.9-42.57-54.63-59.81-1.25-62.5,57.31-36.54,83.72,12.06,13.83,48.96,28.73,49.31,49.66,2.58,30.27-33.83,26.73-34.41,5.12v-11.86s-29.8,0-29.8,0c.35,9.78-1.44,22.04,3.8,30.7,3.43,5.65,11.81,22.15,34.16,23.22,32.99,4.19,57.71-14.3,56.06-45.02-1.23-12.55,4.82-16.38-20.23-41.54-20.58-18.09-44.34-27.67-44.34-48.24-.07-27.03,33.88-26.75,35.12-3.9,0,0,.27,12.77.27,12.77Z"/>
      <path class="cls-1" d="m419.58,54.65h29.18c-1.63-11.78,8.29-50.9-42.57-54.63-59.81-1.25-62.5,57.31-36.54,83.72,12.06,13.83,48.96,28.73,49.31,49.66,2.58,30.27-33.83,26.73-34.41,5.12v-11.86s-29.8,0-29.8,0c.35,9.78-1.44,22.04,3.8,30.7,3.43,5.65,11.81,22.15,34.16,23.22,32.99,4.19,57.71-14.3,56.06-45.02-1.23-12.55,4.82-16.38-20.23-41.54-20.58-18.09-44.34-27.67-44.34-48.24-.07-27.03,33.88-26.75,35.12-3.9,0,0,.27,12.77.27,12.77Z"/>
    </g>
  </g>
</svg>