<?xml version="1.0" encoding="UTF-8"?>
<svg id="logo_txt" data-name="logo-txt" xmlns="http://www.w3.org/2000/svg" viewBox="0 0 133.02 29.71">
  
  <g id="logo_w-txt" data-name="logo w">
    <g>
      <path class="cls-1" d="m22.82,29.26h-5.57l-4.54-12.07h-7.42v12.07H0V.01h12.68c3.52,0,6.12.8,7.78,2.39.82.8,1.47,1.76,1.9,2.82.43,1.06.63,2.21.58,3.35.1,1.69-.36,3.37-1.31,4.77-.95,1.4-2.34,2.45-3.95,2.98l5.14,12.92ZM5.27,13.02h6.58c1.51.12,3.01-.31,4.23-1.21.47-.41.83-.92,1.07-1.49.24-.57.35-1.19.32-1.81.02-.59-.09-1.18-.33-1.72-.24-.54-.59-1.02-1.04-1.41-1.09-.85-2.45-1.27-3.83-1.18h-6.99l-.02,8.81Z"/>
      <path class="cls-1" d="m41.16,22.36l4.39.6c-.54,1.93-1.7,3.62-3.29,4.84-1.8,1.32-4,2-6.23,1.91-1.35.05-2.7-.19-3.95-.71-1.25-.52-2.37-1.31-3.29-2.31-1.92-2.28-2.9-5.21-2.74-8.18-.11-2.96.88-5.85,2.76-8.13.93-1.07,2.08-1.91,3.38-2.46,1.3-.56,2.7-.81,4.11-.75,1.36-.07,2.72.18,3.96.73,1.24.55,2.34,1.39,3.2,2.45,1.75,2.34,2.65,5.22,2.52,8.14v.56h-14.9c-.04,1.19.1,2.38.42,3.53.3.92.88,1.73,1.66,2.32.66.48,1.42.79,2.23.92.81.13,1.63.07,2.41-.18.78-.25,1.49-.67,2.07-1.24.58-.57,1.03-1.27,1.29-2.04h0Zm-.31-6.47c.04-1.4-.47-2.76-1.4-3.81-.43-.46-.96-.83-1.53-1.08-.58-.26-1.2-.39-1.83-.4-.63,0-1.26.11-1.85.35-.59.24-1.12.59-1.57,1.04-.96,1.08-1.52,2.46-1.58,3.9h9.76Z"/>
      <path class="cls-1" d="m68.32,29.26h-4.88v-13.51c.09-1.16-.27-2.31-.99-3.22-.29-.35-.66-.62-1.07-.81-.41-.19-.86-.29-1.31-.28-.64.02-1.27.18-1.83.47-.57.29-1.07.7-1.46,1.21-1.06,1.45-1.56,3.23-1.43,5.02v11.12h-4.89V7.62h4.39v5.01c1.55-3.64,3.74-5.49,6.58-5.49,1.8-.04,3.54.61,4.88,1.81,1.35,1.19,2.02,3.3,2.02,6.32v13.98Z"/>
      <path class="cls-1" d="m84.66,29.26h-5.68V4.52h-7.78V0h21.2v4.52h-7.78l.03,24.74Z"/>
      <path class="cls-1" d="m111.38,29.26h-4.65c-.43-1.43-.68-2.9-.75-4.39-.53,1.49-1.53,2.77-2.85,3.64-1.32.87-2.9,1.28-4.48,1.17-.95.05-1.9-.1-2.79-.42-.89-.33-1.71-.83-2.41-1.47-.64-.61-1.15-1.35-1.49-2.17-.34-.82-.5-1.7-.48-2.59,0-4.96,4.37-7.45,13.1-7.46h1.39v-1.62c0-2.19-1.54-3.37-4.58-3.37s-4.66,1.1-5.06,3.37l-4.16-.62c.12-.9.43-1.76.91-2.53.48-.77,1.12-1.42,1.88-1.92,2.12-1.3,4.58-1.91,7.06-1.76,1.38-.03,2.75.11,4.09.43,1,.24,1.92.72,2.69,1.4.67.6,1.19,1.35,1.5,2.19.34,1.29.48,2.62.42,3.95v9.77c.01,1.49.23,2.96.65,4.39Zm-5.4-10.97c-6.32,0-9.48,1.51-9.48,4.52,0,.43.07.85.24,1.25.16.4.41.75.72,1.05.39.34.85.6,1.35.77.5.16,1.02.23,1.54.19.79.05,1.58-.08,2.32-.38.73-.31,1.38-.78,1.9-1.38.93-1.13,1.44-2.55,1.43-4.01v-2Z"/>
      <path class="cls-1" d="m133.02,29.26h-5.57l-4.6-7.89-5.01,7.89h-4.2l7.2-11.13-6.23-10.5h5.59l3.55,6.36,4.05-6.36h4.09l-6.11,9.38,7.24,12.25Z"/>
    </g>
  </g>
</svg>